<?xml version="1.0" encoding="UTF-8" standalone="no"?>
<svg
   xmlns:dc="http://purl.org/dc/elements/1.1/"
   xmlns:cc="http://creativecommons.org/ns#"
   xmlns:rdf="http://www.w3.org/1999/02/22-rdf-syntax-ns#"
   xmlns:svg="http://www.w3.org/2000/svg"
   xmlns="http://www.w3.org/2000/svg"
   xmlns:sodipodi="http://sodipodi.sourceforge.net/DTD/sodipodi-0.dtd"
   xmlns:inkscape="http://www.inkscape.org/namespaces/inkscape"
   version="1.0"
   width="522.000000pt"
   height="647.000000pt"
   viewBox="0 0 522.000000 647.000000"
   preserveAspectRatio="xMidYMid meet"
   id="svg8"
   sodipodi:docname="bts.svg"
   inkscape:version="0.92.2 5c3e80d, 2017-08-06">
  <metadata
     id="metadata14">
    <rdf:RDF>
      <cc:Work
         rdf:about="">
        <dc:format>image/svg+xml</dc:format>
        <dc:type
           rdf:resource="http://purl.org/dc/dcmitype/StillImage" />
      </cc:Work>
    </rdf:RDF>
  </metadata>
  <defs
     id="defs12" />
  <sodipodi:namedview
     pagecolor="#ffffff"
     bordercolor="#666666"
     borderopacity="1"
     objecttolerance="10"
     gridtolerance="10"
     guidetolerance="10"
     inkscape:pageopacity="0"
     inkscape:pageshadow="2"
     inkscape:window-width="891"
     inkscape:window-height="673"
     id="namedview10"
     showgrid="false"
     inkscape:zoom="0.27357032"
     inkscape:cx="348"
     inkscape:cy="431.33333"
     inkscape:window-x="0"
     inkscape:window-y="0"
     inkscape:window-maximized="0"
     inkscape:current-layer="svg8" />
  <g
     transform="translate(0.000000,647.000000) scale(0.100000,-0.100000)"
     fill="#000000"
     stroke="none"
     id="g6"
     style="fill:#24a19c;fill-opacity:1">
    <path
       d="M780 3295 c0 -1664 4 -3025 8 -3025 7 0 693 247 1082 390 58 21 209 76 335 122 l230 83 2 2030 3 2030 -142 120 c-79 66 -188 158 -243 206 -355 303 -1265 1069 -1269 1069 -3 0 -6 -1361 -6 -3025z"
       id="path2"
       style="fill:#24a19c;fill-opacity:1" />
    <path
       d="M4425 6292 c-17 -15 -51 -44 -77 -65 -26 -21 -53 -43 -60 -50 -7 -7 -38 -32 -68 -57 -30 -25 -57 -47 -60 -50 -3 -3 -34 -30 -70 -60 -36 -30 -67 -57 -70 -60 -3 -3 -26 -22 -52 -43 -26 -21 -53 -43 -60 -50 -7 -7 -38 -32 -68 -57 -30 -25 -57 -47 -60 -50 -3 -3 -61 -52 -130 -110 -69 -57 -127 -107 -130 -110 -3 -3 -30 -25 -60 -50 -30 -25 -57 -47 -60 -50 -3 -3 -58 -49 -122 -103 -64 -53 -122 -102 -130 -109 -7 -7 -34 -30 -60 -51 -26 -21 -53 -43 -60 -50 -7 -7 -61 -53 -120 -101 l-108 -89 0 -2029 0 -2029 33 -13 c17 -8 221 -82 452 -166 231 -83 461 -167 510 -185 50 -19 149 -55 220 -80 72 -26 189 -69 261 -95 72 -27 143 -52 158 -56 l26 -6 0 3026 c0 1664 -1 3026 -2 3026 -2 0 -17 -12 -33 -28z"
       id="path4"
       style="fill:#24a19c;fill-opacity:1" />
  </g>
</svg>
