<?xml version="1.0" encoding="UTF-8" standalone="no"?>
<svg
   xmlns:dc="http://purl.org/dc/elements/1.1/"
   xmlns:cc="http://creativecommons.org/ns#"
   xmlns:rdf="http://www.w3.org/1999/02/22-rdf-syntax-ns#"
   xmlns:svg="http://www.w3.org/2000/svg"
   xmlns="http://www.w3.org/2000/svg"
   xmlns:sodipodi="http://sodipodi.sourceforge.net/DTD/sodipodi-0.dtd"
   xmlns:inkscape="http://www.inkscape.org/namespaces/inkscape"
   version="1.0"
   width="481.000000pt"
   height="721.000000pt"
   viewBox="0 0 481.000000 721.000000"
   preserveAspectRatio="xMidYMid meet"
   id="svg6"
   sodipodi:docname="dancer2.svg"
   inkscape:version="0.92.2 5c3e80d, 2017-08-06">
  <metadata
     id="metadata12">
    <rdf:RDF>
      <cc:Work
         rdf:about="">
        <dc:format>image/svg+xml</dc:format>
        <dc:type
           rdf:resource="http://purl.org/dc/dcmitype/StillImage" />
      </cc:Work>
    </rdf:RDF>
  </metadata>
  <defs
     id="defs10" />
  <sodipodi:namedview
     pagecolor="#ffffff"
     bordercolor="#666666"
     borderopacity="1"
     objecttolerance="10"
     gridtolerance="10"
     guidetolerance="10"
     inkscape:pageopacity="0"
     inkscape:pageshadow="2"
     inkscape:window-width="738"
     inkscape:window-height="480"
     id="namedview8"
     showgrid="false"
     inkscape:zoom="0.24549237"
     inkscape:cx="320.66667"
     inkscape:cy="480.66667"
     inkscape:window-x="0"
     inkscape:window-y="0"
     inkscape:window-maximized="0"
     inkscape:current-layer="svg6" />
  <g
     transform="translate(0.000000,721.000000) scale(0.100000,-0.100000)"
     fill="#000000"
     stroke="none"
     id="g4"
     style="fill:#24a19c;fill-opacity:1">
    <path
       d="M2895 7147 c-126 -67 -207 -124 -319 -228 -34 -30 -76 -66 -93 -78 -29 -19 -33 -28 -33 -65 0 -39 -3 -45 -30 -56 -20 -8 -42 -33 -68 -79 -21 -36 -51 -74 -67 -84 -122 -74 -193 -124 -236 -164 -69 -65 -73 -58 -77 133 -4 173 -6 177 -69 155 -32 -12 -37 -11 -59 10 -18 17 -36 22 -84 23 -34 1 -63 -2 -66 -6 -12 -19 -43 -6 -63 27 -33 56 -47 55 -107 -7 l-54 -56 -103 -4 c-101 -3 -104 -4 -177 -47 -41 -24 -129 -75 -195 -112 -147 -84 -220 -156 -273 -267 -32 -67 -36 -85 -40 -176 -3 -74 2 -133 17 -220 12 -69 21 -161 21 -220 0 -86 -4 -107 -23 -141 -73 -128 -211 -112 -363 43 -41 41 -74 70 -74 65 0 -23 43 -132 76 -192 20 -36 60 -97 90 -135 30 -38 54 -73 54 -77 0 -11 -96 19 -152 47 -106 54 -219 173 -290 306 -18 33 -34 56 -36 50 -5 -17 27 -180 50 -252 60 -187 197 -365 358 -466 34 -22 71 -47 83 -56 l22 -18 -25 -21 c-32 -27 -115 -69 -210 -104 -59 -22 -70 -30 -55 -36 85 -33 354 38 527 140 79 46 80 45 42 -67 -57 -170 -160 -322 -277 -408 -66 -49 -208 -121 -257 -130 -16 -4 -30 -10 -30 -15 0 -15 73 -22 179 -16 168 9 318 67 436 168 93 80 90 78 75 49 -7 -14 -75 -127 -151 -251 -253 -418 -378 -609 -398 -609 -9 0 -72 -82 -180 -233 l-64 -89 5 -103 c6 -127 13 -140 80 -132 43 6 51 3 90 -29 l42 -36 17 21 c10 12 25 45 34 74 8 28 20 68 26 87 6 19 42 92 80 161 38 69 69 132 69 141 0 9 20 43 45 77 49 66 452 537 478 560 14 11 19 8 36 -20 17 -27 25 -60 45 -189 2 -8 10 12 20 45 25 86 26 88 32 82 6 -6 -20 -185 -33 -232 -3 -14 -2 -17 5 -10 6 6 20 42 32 80 26 86 36 245 22 340 l-11 70 37 40 c73 78 84 94 93 135 7 29 35 75 91 146 l82 104 93 -141 c51 -77 96 -152 99 -166 15 -57 -54 -200 -266 -553 -172 -288 -220 -372 -220 -390 0 -20 123 -6 216 25 44 14 148 62 232 107 85 44 155 78 158 76 9 -10 -130 -537 -247 -933 -61 -206 -79 -235 -227 -366 -163 -145 -242 -256 -470 -669 -253 -457 -244 -442 -282 -458 -67 -27 -151 -96 -235 -190 -47 -52 -85 -103 -85 -114 0 -11 12 -29 27 -41 14 -12 42 -37 60 -54 41 -39 42 -34 -19 -278 -31 -128 -40 -181 -41 -263 -2 -97 -1 -105 21 -123 31 -24 77 -37 187 -50 100 -12 479 -9 492 4 4 5 9 43 11 85 l4 77 -56 76 c-30 42 -60 89 -66 103 -17 46 -11 107 19 194 43 124 45 125 129 128 47 1 81 8 97 18 22 15 25 23 25 83 0 65 -1 66 -45 111 -25 24 -45 48 -45 51 0 4 30 24 67 46 190 109 396 267 511 390 39 42 108 134 154 206 435 681 686 1026 913 1255 108 109 198 174 241 174 12 0 46 -17 75 -37 111 -76 343 -171 670 -273 282 -87 296 -100 292 -270 -3 -109 -14 -165 -78 -405 -34 -127 -38 -154 -40 -286 -2 -118 -7 -162 -26 -224 -27 -91 -30 -93 -214 -150 -151 -46 -177 -68 -183 -152 -4 -65 8 -118 63 -267 19 -54 60 -193 91 -308 84 -320 128 -427 206 -506 47 -48 85 -59 125 -39 48 26 72 82 84 203 10 100 15 119 64 224 29 63 58 114 63 113 42 -9 189 -23 242 -23 76 0 110 8 110 24 0 7 -49 74 -110 151 -60 76 -110 139 -110 141 0 1 28 2 63 2 117 -2 166 31 206 137 95 254 189 945 207 1525 12 353 -11 435 -163 581 -148 143 -329 260 -676 440 -227 118 -277 149 -277 175 0 7 -17 16 -37 19 -97 14 -108 19 -109 45 -1 14 -2 30 -3 36 0 6 -27 28 -58 48 -32 20 -73 49 -90 64 l-33 28 0 275 c0 151 -5 337 -11 414 l-10 139 23 18 c74 57 161 111 197 124 23 8 99 21 168 29 144 17 164 28 237 122 l41 54 60 -7 c84 -9 142 -33 232 -96 104 -73 103 -72 103 -53 0 27 -119 143 -174 170 -28 14 -79 28 -114 31 -34 4 -65 11 -68 16 -3 4 24 62 60 127 36 65 66 126 66 134 0 23 -19 25 -245 31 -110 3 -218 9 -240 15 -22 6 -107 20 -190 31 -168 23 -239 42 -273 74 -54 48 -248 314 -237 324 2 3 50 -33 107 -78 56 -45 104 -78 106 -72 5 15 -53 125 -108 207 -27 38 -59 96 -73 127 -35 79 -57 90 -183 96 -57 3 -106 7 -108 11 -11 20 24 79 94 160 60 69 80 99 80 121 0 43 18 81 40 87 15 4 22 20 31 65 7 34 22 72 34 86 l22 26 64 -23 c144 -53 235 -108 255 -157 9 -21 34 -46 69 -70 91 -60 139 -113 154 -169 7 -28 18 -67 24 -88 6 -20 26 -55 44 -77 19 -22 42 -63 51 -92 21 -64 46 -73 97 -34 38 29 134 168 165 239 26 58 21 71 -64 176 -72 87 -86 115 -86 164 0 47 -24 75 -76 88 -32 8 -48 19 -57 38 -18 39 -97 87 -154 95 -57 7 -80 20 -243 141 -124 92 -191 125 -253 125 -18 0 -67 -19 -112 -43z"
       id="path2"
       style="fill:#24a19c;fill-opacity:1" />
  </g>
</svg>
