<?xml version="1.0" encoding="iso-8859-1"?>
<!-- Generator: Adobe Illustrator 16.0.0, SVG Export Plug-In . SVG Version: 6.00 Build 0)  -->
<!DOCTYPE svg PUBLIC "-//W3C//DTD SVG 1.1//EN" "http://www.w3.org/Graphics/SVG/1.1/DTD/svg11.dtd">
<svg version="1.1" id="Capa_1" xmlns="http://www.w3.org/2000/svg" xmlns:xlink="http://www.w3.org/1999/xlink" x="0px" y="0px"
	 width="27.471px" height="27.471px" viewBox="0 0 27.471 27.471" style="enable-background:new 0 0 27.471 27.471;"
	 xml:space="preserve">
<g>
	<g>
		<polygon points="25.846,25.391 25.925,25.391 25.925,24.737 25.846,24.737 25.846,24.083 25.925,24.083 25.925,23.43 
			25.846,23.43 25.846,22.775 25.925,22.775 25.925,22.122 25.846,22.122 25.846,21.47 25.925,21.47 25.925,21.165 26.375,21.165 
			26.375,21.003 25.925,21.003 25.925,20.818 25.846,20.818 25.846,20.165 25.925,20.165 25.925,19.513 25.846,19.513 
			25.846,18.861 25.925,18.861 25.925,18.206 25.846,18.206 25.846,17.555 25.925,17.555 25.925,16.903 25.846,16.903 
			25.846,16.251 25.925,16.251 25.925,15.597 25.846,15.597 25.846,14.945 25.925,14.945 25.925,14.851 26.382,14.851 26.382,14.69 
			25.925,14.69 25.925,14.292 25.846,14.292 25.846,13.642 25.925,13.642 25.925,12.987 25.846,12.987 25.846,12.333 25.925,12.333 
			25.925,11.684 25.846,11.684 25.846,11.032 25.925,11.032 25.925,10.377 25.846,10.377 25.846,9.727 25.925,9.727 25.925,9.075 
			25.846,9.075 25.846,8.915 26.37,8.915 26.37,8.752 25.846,8.752 25.846,8.421 25.925,8.421 25.925,7.769 25.846,7.769 
			25.846,7.117 25.925,7.117 25.925,6.462 25.846,6.462 25.846,5.811 25.925,5.811 25.925,5.159 25.846,5.159 25.846,4.505 
			25.925,4.505 25.925,3.852 25.846,3.852 25.846,3.373 20.91,8.752 20.473,8.752 20.473,8.915 20.764,8.915 15.464,14.69 
			13.513,15.568 13.513,15.544 13.352,15.544 13.352,15.642 7.199,18.407 7.199,18.122 7.038,18.122 7.038,18.48 1.43,21.003 
			1.414,21.003 1.414,21.012 1.29,21.068 1.29,20.489 13.39,14.9 13.513,14.9 13.513,14.851 13.539,14.851 13.539,14.831 
			15.169,14.081 25.406,2.723 25.764,3.082 25.764,3.2 25.881,3.2 26.109,3.428 26.3,2.602 26.536,2.602 26.536,2.439 26.336,2.439 
			26.695,0.88 24.146,1.464 24.95,2.268 24.795,2.439 24.576,2.439 24.576,2.602 24.65,2.602 19.818,7.978 19.818,7.957 
			19.657,7.957 19.657,8.157 14.838,13.521 12.255,14.714 12.255,14.69 11.614,14.69 11.614,14.851 11.958,14.851 7.199,17.05 
			7.199,16.827 7.038,16.827 7.038,17.124 1.29,19.78 1.29,8.915 1.486,8.915 1.486,8.752 1.29,8.752 1.29,0.371 0,0.371 0,27.202 
			27.309,27.202 27.309,25.913 25.846,25.913 		"/>
		<rect x="26.984" y="21.003" width="0.32" height="0.162"/>
		<rect x="1.662" y="14.69" width="0.319" height="0.16"/>
		<rect x="7.762" y="14.69" width="0.641" height="0.16"/>
		<rect x="10.33" y="14.69" width="0.642" height="0.16"/>
		<rect x="9.046" y="14.69" width="0.643" height="0.16"/>
		<rect x="5.194" y="14.69" width="0.643" height="0.16"/>
		<rect x="14.18" y="14.69" width="0.645" height="0.16"/>
		<rect x="3.908" y="14.69" width="0.644" height="0.16"/>
		<rect x="2.622" y="14.69" width="0.644" height="0.16"/>
		<polygon points="6.478,14.851 7.038,14.851 7.038,14.882 7.199,14.882 7.199,14.233 7.038,14.233 7.038,14.69 6.478,14.69 		"/>
		<rect x="26.984" y="14.69" width="0.32" height="0.16"/>
		<rect x="10" y="8.752" width="0.654" height="0.161"/>
		<rect x="3.45" y="8.752" width="0.655" height="0.161"/>
		<rect x="12.617" y="8.752" width="0.653" height="0.161"/>
		<rect x="2.137" y="8.752" width="0.656" height="0.161"/>
		<rect x="4.76" y="8.752" width="0.655" height="0.161"/>
		<rect x="11.309" y="8.752" width="0.654" height="0.161"/>
		<rect x="17.854" y="8.752" width="0.655" height="0.161"/>
		<rect x="15.236" y="8.752" width="0.654" height="0.161"/>
		<rect x="6.071" y="8.752" width="0.655" height="0.161"/>
		<rect x="8.69" y="8.752" width="0.654" height="0.161"/>
		<rect x="16.544" y="8.752" width="0.655" height="0.161"/>
		<rect x="7.38" y="8.752" width="0.654" height="0.161"/>
		<rect x="13.925" y="8.752" width="0.657" height="0.161"/>
		<rect x="26.984" y="8.752" width="0.32" height="0.161"/>
		<rect x="1.414" y="2.439" width="0.32" height="0.162"/>
		<rect x="14.133" y="2.439" width="0.655" height="0.162"/>
		<rect x="16.743" y="2.439" width="0.653" height="0.162"/>
		<rect x="15.438" y="2.439" width="0.652" height="0.162"/>
		<rect x="8.914" y="2.439" width="0.653" height="0.162"/>
		<rect x="21.963" y="2.439" width="0.653" height="0.162"/>
		<rect x="6.304" y="2.439" width="0.652" height="0.162"/>
		<rect x="19.354" y="2.439" width="0.652" height="0.162"/>
		<rect x="20.658" y="2.439" width="0.652" height="0.162"/>
		<rect x="2.384" y="2.439" width="0.654" height="0.162"/>
		<rect x="4.998" y="2.439" width="0.653" height="0.162"/>
		<rect x="18.048" y="2.439" width="0.653" height="0.162"/>
		<rect x="3.691" y="2.439" width="0.653" height="0.162"/>
		<rect x="11.524" y="2.439" width="0.652" height="0.162"/>
		<rect x="23.27" y="2.439" width="0.651" height="0.162"/>
		<rect x="12.829" y="2.439" width="0.651" height="0.162"/>
		<rect x="10.22" y="2.439" width="0.652" height="0.162"/>
		<rect x="7.609" y="2.439" width="0.652" height="0.162"/>
		<rect x="27.15" y="2.439" width="0.32" height="0.162"/>
		<rect x="7.038" y="0.296" width="0.162" height="0.32"/>
		<rect x="7.038" y="5.157" width="0.162" height="0.649"/>
		<rect x="7.038" y="6.456" width="0.162" height="0.646"/>
		<rect x="7.038" y="10.344" width="0.162" height="0.648"/>
		<rect x="7.038" y="9.047" width="0.162" height="0.649"/>
		<rect x="7.038" y="7.75" width="0.162" height="0.649"/>
		<rect x="7.038" y="1.262" width="0.162" height="0.651"/>
		<rect x="7.038" y="2.562" width="0.162" height="0.648"/>
		<rect x="7.038" y="3.86" width="0.162" height="0.648"/>
		<rect x="7.038" y="11.641" width="0.162" height="0.647"/>
		<rect x="7.038" y="15.529" width="0.162" height="0.648"/>
		<rect x="7.038" y="12.937" width="0.162" height="0.649"/>
		<rect x="13.352" y="0.457" width="0.161" height="0.319"/>
		<rect x="13.352" y="9.124" width="0.161" height="0.644"/>
		<rect x="13.352" y="11.691" width="0.161" height="0.642"/>
		<rect x="13.352" y="3.988" width="0.161" height="0.645"/>
		<rect x="13.352" y="1.417" width="0.161" height="0.644"/>
		<rect x="13.352" y="12.975" width="0.161" height="0.644"/>
		<rect x="13.352" y="10.409" width="0.161" height="0.643"/>
		<rect x="13.352" y="5.272" width="0.161" height="0.644"/>
		<rect x="13.352" y="2.704" width="0.161" height="0.642"/>
		<rect x="13.352" y="6.558" width="0.161" height="0.64"/>
		<rect x="13.352" y="7.839" width="0.161" height="0.644"/>
		<rect x="19.657" y="0.433" width="0.161" height="0.32"/>
		<rect x="19.657" y="9.268" width="0.161" height="0.653"/>
		<rect x="19.657" y="2.717" width="0.161" height="0.656"/>
		<rect x="19.657" y="6.647" width="0.161" height="0.653"/>
		<rect x="19.657" y="1.406" width="0.161" height="0.656"/>
		<rect x="19.657" y="5.337" width="0.161" height="0.655"/>
		<rect x="19.657" y="4.028" width="0.161" height="0.655"/>
		<rect x="25.764" y="0.269" width="0.162" height="0.32"/>
	</g>
</g>
<g>
</g>
<g>
</g>
<g>
</g>
<g>
</g>
<g>
</g>
<g>
</g>
<g>
</g>
<g>
</g>
<g>
</g>
<g>
</g>
<g>
</g>
<g>
</g>
<g>
</g>
<g>
</g>
<g>
</g>
</svg>
