<?xml version="1.0" encoding="iso-8859-1"?>
<!-- Generator: Adobe Illustrator 16.0.0, SVG Export Plug-In . SVG Version: 6.00 Build 0)  -->
<!DOCTYPE svg PUBLIC "-//W3C//DTD SVG 1.1//EN" "http://www.w3.org/Graphics/SVG/1.1/DTD/svg11.dtd">
<svg version="1.1" id="Capa_1" xmlns="http://www.w3.org/2000/svg" xmlns:xlink="http://www.w3.org/1999/xlink" x="0px" y="0px"
	 width="34.093px" height="34.093px" viewBox="0 0 34.093 34.093" style="enable-background:new 0 0 34.093 34.093;"
	 xml:space="preserve">
<g>
	<path d="M21.092,14.675c-0.049-0.374-0.591-1.387-0.615-1.892c-0.024-0.505,0.709-3.562,0.431-4.055
		c-0.279-0.492-1.063-1.394-1.199-1.572c-0.137-0.179-0.002-0.561-0.266-0.878c-0.267-0.315-0.825-0.555-0.825-0.555l0.003-0.392
		c0,0,0.368-0.268,0.392-0.721c0.016-0.263-0.15-0.353-0.15-0.353s0.114-0.771-0.202-1.112c-0.132-0.141-0.103-0.568-0.847-0.783
		c-0.587-0.169-1.301,0.051-1.301,0.051s0.291-0.693,0.601-0.801c0.309-0.105,0.84,0.092,1.13,0.207
		c0.156,0.062,0.503,0.041,0.809,0.076c0.268,0.03,0.581,0.178,0.557,0.037c-0.03-0.173-0.353-0.343-0.353-0.343
		s0.124-0.313,0.023-0.401c-0.102-0.09-0.166-0.144-0.271-0.231c-0.055-0.046-0.095-0.314-0.211-0.54
		c-0.103-0.199-0.277-0.36-0.392-0.403c-0.11-0.042-0.638,0.003-0.979,0.212c-0.312,0.191-1.054,0.561-1.144,0.521
		c-0.163-0.075-0.896-0.582-1.186-0.619c-0.139-0.018-0.335,0.348-0.823,0.91c-0.535,0.619-1.361,1.446-1.471,1.678
		c-0.209,0.44,0.437,1.757,0.437,1.757s0.29,0.896,0.519,1.34c0.227,0.441,0.984,1.662,0.984,1.662l-1.213,3.578l0.088,0.834
		c0,0-0.139-0.008-0.36-0.021c-0.221-0.013-0.548,0.525-0.509,0.879c0.037,0.354,0.719,1.579,0.869,1.579
		c0.153,0,2.148,0.089,2.148,0.089s-0.095,0.793-0.152,1.287c-0.059,0.496-0.386,0.989-0.455,1.479
		c-0.303,2.146,0.948,4.938,0.948,5.354c0,0.203-0.167,0.911-0.402,1.837c-0.076,0.303-0.589,0.762-0.658,1.03
		c-0.154,0.586,0.1,1.112,0.1,1.112s-0.112,1.956-0.266,2.424c-0.15,0.468-0.558,1.2-0.693,1.452
		c-0.137,0.253-0.139,1.035-0.291,1.415c-0.15,0.378-0.429,0.821-0.518,1.237s-0.063,1.098,0.455,1.049
		c0.519-0.051,0.809-0.216,1.06-0.467c0.253-0.253,0.607-0.684,0.683-1.177c0.076-0.491,0.24-1.213,0.18-1.443
		c-0.062-0.233-0.091-0.829,0.072-1.474c0.165-0.645,1.314-2.413,1.314-2.413s0.442,0.507,0.655,0.568
		c0.215,0.063,0.48,1.645,0.783,2.223c0.303,0.582,0.342,1.138,0.254,1.304c-0.09,0.163-0.505,1.11-0.708,1.375
		c-0.253,0.328-0.567,0.606-0.594,0.834c-0.026,0.227,0.114,0.505,0.567,0.518c0.454,0.013,0.795-0.089,1.072-0.314
		c0.278-0.229,0.355-0.53,0.631-0.721c0.276-0.189,0.62-0.202,0.735-0.354c0.113-0.152-0.076-0.885-0.218-1.118
		c-0.15-0.246-0.433-2.699-0.401-3.946c0.009-0.426,0.267-0.239,0.112-1.125c-0.215-1.253-0.66-2.047-0.645-2.172
		c0.053-0.367,2.047-6.466,1.957-7.501C21.26,15.651,21.139,15.049,21.092,14.675z M14.818,12.417
		c-0.188,0.014-0.505-0.277-0.505-0.277l0.505-1.087c0,0,0.127,0.594,0.48,1.212C15.151,12.328,15.008,12.404,14.818,12.417z
		 M15.513,4.776c0.001-0.138,0.012-0.517-0.026-0.694c-0.037-0.178-0.39-0.379-0.39-0.379l0.833-0.809c0,0-0.151,1.216-0.114,1.517
		c0.038,0.301,0.063,0.492,0.077,0.645c0.011,0.151,0.201,0.277,0.276,0.341c0.076,0.063,0.113,0.656,0.113,0.656
		S15.512,4.916,15.513,4.776z"/>
</g>
<g>
</g>
<g>
</g>
<g>
</g>
<g>
</g>
<g>
</g>
<g>
</g>
<g>
</g>
<g>
</g>
<g>
</g>
<g>
</g>
<g>
</g>
<g>
</g>
<g>
</g>
<g>
</g>
<g>
</g>
</svg>
