<?xml version="1.0" encoding="UTF-8" standalone="no"?>
<svg
   xmlns:dc="http://purl.org/dc/elements/1.1/"
   xmlns:cc="http://creativecommons.org/ns#"
   xmlns:rdf="http://www.w3.org/1999/02/22-rdf-syntax-ns#"
   xmlns:svg="http://www.w3.org/2000/svg"
   xmlns="http://www.w3.org/2000/svg"
   xmlns:sodipodi="http://sodipodi.sourceforge.net/DTD/sodipodi-0.dtd"
   xmlns:inkscape="http://www.inkscape.org/namespaces/inkscape"
   version="1.0"
   width="548.000000pt"
   height="760.000000pt"
   viewBox="0 0 548.000000 760.000000"
   preserveAspectRatio="xMidYMid meet"
   id="svg12"
   sodipodi:docname="unbound.svg"
   inkscape:version="0.92.2 5c3e80d, 2017-08-06">
  <metadata
     id="metadata18">
    <rdf:RDF>
      <cc:Work
         rdf:about="">
        <dc:format>image/svg+xml</dc:format>
        <dc:type
           rdf:resource="http://purl.org/dc/dcmitype/StillImage" />
      </cc:Work>
    </rdf:RDF>
  </metadata>
  <defs
     id="defs16" />
  <sodipodi:namedview
     pagecolor="#ffffff"
     bordercolor="#666666"
     borderopacity="1"
     objecttolerance="10"
     gridtolerance="10"
     guidetolerance="10"
     inkscape:pageopacity="0"
     inkscape:pageshadow="2"
     inkscape:window-width="1006"
     inkscape:window-height="640"
     id="namedview14"
     showgrid="false"
     inkscape:zoom="0.23289474"
     inkscape:cx="1133.9209"
     inkscape:cy="506.66667"
     inkscape:window-x="211"
     inkscape:window-y="48"
     inkscape:window-maximized="0"
     inkscape:current-layer="svg12" />
  <g
     transform="translate(0.000000,760.000000) scale(0.100000,-0.100000)"
     fill="#000000"
     stroke="none"
     id="g10"
     style="fill:#24a19c;fill-opacity:1">
    <path
       d="M2173 7203 l-378 -328 -5 -2048 -5 -2049 -362 299 -363 298 0 1417 c0 927 -3 1419 -10 1423 -5 3 -190 -150 -410 -341 l-400 -346 0 -1124 0 -1124 1157 -1079 c636 -594 1160 -1078 1165 -1075 11 7 10 6391 -1 6399 -5 3 -180 -142 -388 -322z"
       id="path2"
       style="fill:#24a19c;fill-opacity:1" />
    <path
       d="M2877 7523 c-4 -3 -7 -147 -7 -319 l0 -313 98 -90 c526 -488 2129 -1947 2135 -1944 4 2 7 141 7 308 l0 304 -1057 978 c-582 537 -1083 1001 -1114 1030 -31 29 -59 50 -62 46z"
       id="path4"
       style="fill:#24a19c;fill-opacity:1" />
    <path
       d="M2877 6423 c-4 -3 -7 -1426 -7 -3160 0 -2665 2 -3154 14 -3151 7 2 511 478 1120 1058 l1106 1055 0 367 0 367 -220 171 c-121 95 -218 176 -215 181 3 5 102 83 220 175 l215 166 0 384 0 383 -1092 987 c-601 543 -1102 995 -1114 1006 -11 10 -24 15 -27 11z m1127 -1913 l326 -305 0 -185 0 -185 -142 -142 -143 -143 -212 0 -213 0 0 656 0 657 29 -24 c16 -13 176 -161 355 -329z m203 -1642 l123 -123 0 -190 0 -190 -348 -308 c-337 -299 -347 -307 -353 -280 -4 15 -9 295 -12 621 l-5 592 236 0 237 0 122 -122z"
       id="path6"
       style="fill:#24a19c;fill-opacity:1" />
    <path
       d="M240 2512 l0 -318 1156 -1058 c667 -609 1160 -1054 1165 -1049 5 5 8 144 7 309 l-3 299 -1154 1067 c-635 588 -1158 1068 -1162 1068 -5 0 -9 -143 -9 -318z"
       id="path8"
       style="fill:#24a19c;fill-opacity:1" />
  </g>
</svg>
